<?xml version="1.0" encoding="utf-8"?>
<!-- Designed by Vexels.com - 2020 All Rights Reserved - https://vexels.com/terms-and-conditions/  -->
<svg version="1.1" id="Layer_1" xmlns="http://www.w3.org/2000/svg" xmlns:xlink="http://www.w3.org/1999/xlink" x="0px" y="0px"
	 viewBox="0 0 1200 1200" enable-background="new 0 0 1200 1200" xml:space="preserve">
<path fill="#111111" d="M402.799,181.79c0.06-0.805,0.121-1.609,0.181-2.413C402.819,180.177,402.766,180.986,402.799,181.79z
	 M691.666,1008.629c-0.814,9.508-3.614,18.246-9.678,25.965c-2.407,3.063-5.486,5.449-9.085,6.979
	c-5.107,2.171-10.397,3.709-16.006,3.902c-4.494,0.155-8.986,0.373-13.478,0.551c-5.697,0.225-11.233,1.203-16.479,3.522
	c-3.425,1.514-3.793,1.436-3.265-2.291c6.964-49.216-29.401-94.798-59.807-128.882c-3.03-3.397-6.061-6.795-9.092-10.192
	c-9.179-10.289-18.553-20.894-23.416-33.797c-9.786-25.966-0.998-59.683-0.787-87.049c0.007-0.898-0.062-1.798-0.132-2.694
	c-1.177-15.124-3.145-30.122-6.202-45.005c-3.92-19.083-10.967-36.843-20.821-53.616c-6.401-10.896-28.555-32.505-27.992-6.507
	c0.31,14.259,0.619,28.519,0.928,42.778c0.038,1.74,0.046,3.593-0.882,5.066c-1.029,1.634-2.957,2.413-4.503,3.571
	c-7.698,5.768-1.033,21.122,0.172,28.742c0.337,2.131,0.322,2.221-1.759,2.103c-3.423-0.193-5.629,1.452-6.925,4.441
	c-0.867,2.001-1.549,4.082-2.321,6.123c-0.318,0.84-0.636,1.681-0.99,2.505c-0.209,0.487-0.984,0.549-1.243,0.095
	c-0.571-1.002-1.139-2.01-1.634-3.051c-4.748-9.977-9.232-20.071-13.3-30.346c-2.082-5.259-3.955-10.59-5.475-16.039
	c-2.173-7.795-4.353-15.587-6.464-23.399c-23.794-88.075-32.504-172.428,9.68-257.213c15.829-31.815,37.451-61.44,45.377-96.08
	c9.176-40.103-1.157-81.975-14.146-121.009c-1.847-5.553-8.255-12.189-12.043-7.728c12.826,30.947,19.12,64.584,18.348,98.075
	c-2.587-31.625-10.076-62.845-22.118-92.203c12.844,52.244,25.573,108.016,7.931,158.842c8.898-50.735,4.942-103.672-11.395-152.522
	c-10.691,7.879-6.485,24.406-2.184,36.971c17.522,51.183,17.603,109.688-7.209,157.762c18.171-55.48,18.575-116.63,1.138-172.345
	c-9.389,4.989-7.02,18.812-4.016,29.011c14.302,48.547,11.407,101.976-8.057,148.693c11.872-51.971,22.418-108.266,0.95-157.062
	c-7.242,1.393-6.674,11.875-4.562,18.941c13.544,45.291,13.379,94.585-0.468,139.785c10.567-46.803,8.573-96.382-5.718-142.185
	c8.904,49.267,17.475,101.894-2.223,147.921c9.314-44.516,8.769-91.067-1.584-135.354c8.845,41.65,6.761,85.571-5.987,126.196
	c1.495-4.764-12.393-31.554-13.554-39.011c-2.29-14.703-1.779-29.022,0.598-43.618c5.287-32.457,17.695-64.204,34.805-92.212
	c5.582-9.138,11.866-20.526,6.487-29.785c-7.047,13.081-14.094,26.163-21.141,39.245c5.21-14.564,10.421-29.128,15.63-43.693
	c-3.281-0.6-6.787,0.144-9.541,2.026c2.406-5.614,2.262-12.263-0.385-17.768c-3.013,9.713-6.027,19.426-9.04,29.138
	c3.858-13.377,4.332-27.724,1.306-41.317c-6.544,28.712-9.861,58.157-9.867,87.605c-2.187-29.448-0.681-59.168,4.47-88.244
	c-5.314-0.796-9.502-5.879-9.718-11.175c-2.023,26.971-4.046,53.942-6.069,80.914c1.239-32.884,0.611-65.838-1.88-98.651
	c-5.136,46.159-5.726,92.823-1.761,139.097c-6.859-48.586-8.901-97.851-6.088-146.838c-8.38-1.175-11.445,10.649-11.097,19.103
	c2.281,55.43,4.561,110.86,6.842,166.29c-11.678-65.354-14.155-132.345-7.336-198.384c-17.829,42.292-16.815,90.18-10.035,135.573
	c6.78,45.393,19.007,89.994,22.721,135.74c-5.653-43.608-18.501-85.953-26.238-129.24s-10.143-88.923,4.688-130.319
	c3.066-8.557,6.559-19.013,0.645-25.914c-28.4,44.72-23.901,102.59-11.991,154.21c11.911,51.62,30.339,103.13,26.529,155.969
	c2.884-69.488-35.681-134.443-40.781-203.803c-1.47-19.992-0.071-40.181,4.05-59.797c2.52-11.994,18.71-41.664,9.097-49.021
	c-18.238,22.957-25.819,57.288-25.902,86.144c-0.122,42.495,16.356,82.986,29.765,123.31
	c13.409,40.324,23.952,84.128,11.933,124.888c3.623-36.513-0.196-73.749-11.155-108.767c-9.777-31.241-25.145-60.702-32.394-92.624
	c-10.84-47.735-2.225-99.594,23.464-141.261c-13.078,21.212-27.386,34.753-35.351,60.491c-7.934,25.636-9.112,51.777-4.974,78.159
	c3.17,20.219,8.396,39.962,15.256,59.249c6.155,17.304,12.43,34.566,18.672,51.84c2.842,7.863,5.206,15.861,7.046,24.017
	c1.782,7.897,3.385,15.826,4.569,23.837c1.334,9.03,2.409,18.1,2.465,27.231c0.084,13.58-2.205,26.874-5.758,39.928
	c-3.376,12.399-7.528,24.558-12.177,36.544c-2.648,6.826-5.231,13.677-7.887,20.5c-10.204,26.218-20.066,52.551-28.455,79.428
	c-5.605,17.957-9.944,36.144-12.11,54.846c-1.05,9.075-1.473,18.181-1.785,27.296c-0.561,16.455-0.199,32.899,1.472,49.276
	c1.946,19.07,5.395,37.888,10.336,56.421c5.579,20.926-28.273,15.931-44.485,17.803c-7.448,0.86-16.941,3.817-17.096,11.313
	c-5.156-3.162-27.252-24.937-34.111-19.391c-1.778,1.438-2.197,3.399-1.81,5.564c0.135,0.755,0.374,1.495,0.608,2.228
	c4.612,14.449,9.885,28.647,15.956,42.551c5.597,12.818,12.933,24.513,22.168,35.024c14.521,16.526,31.026,30.748,49.82,42.176
	c23.775,14.457,45.827,17.068,73.206,21.386c4.25,0.67,8.597,1.373,12.372,3.438c4.06,2.222,7.135,5.839,10.274,9.24
	c12.519,13.562,27.527,24.819,44.051,33.041c3.776,1.879,7.682,3.634,10.892,6.372c3.09,2.636,5.385,6.059,7.751,9.361
	c26.026,36.323,65.618,62.68,109.169,72.679c-10.38,6.204-14.254,18.978-19.633,29.809c-5.379,10.831-16.176,21.728-27.807,18.421
	c26.766,7.611,26.829-15.102,38.774-32.138c4.822-6.877,12.453-12.337,20.853-12.364c9.834-0.031,19.993,7.106,28.811,2.752
	c3.593-1.774,6.085-5.17,8.17-8.592c5.311-8.715,8.93-18.456,10.6-28.524c0.808-4.873,1.368-10.252,4.921-13.684
	c3.475-3.358,8.757-3.805,13.587-3.966c14.42-0.482,29.652-0.3,42.14-7.526c11.603-6.714,19.808-23.232,11.744-35.267
	C691.924,1008.994,691.797,1008.811,691.666,1008.629z M995.183,377.463c-13.084-69.476-72.473-128.315-142.427-139.732
	c-8.783-1.434-17.792-2.22-26.055-5.523c-8.54-3.414-15.805-9.326-22.917-15.157c-21.472-17.604-42.906-35.284-63.294-54.134
	c-28.644-26.482-58.644-56.94-97.49-60.516c8.399-20.806,23.049-39.043,41.555-51.731c-12.637-3.846-23.495,9.584-29.015,21.584
	c-5.52,12-12.641,26.515-25.829,27.27c-9.508,0.544-18.694-6.865-27.893-4.4c-15.583,4.177-12.056,27.794-20.783,41.363
	c-6.282,9.767-18.701,13.423-30.201,15.037c-11.5,1.613-23.679,2.101-33.568,8.19s-15.928,20.428-8.754,29.56
	c8.816-26.331,40.485-42.489,66.978-34.173c4.758,49.734,27.66,97.534,63.438,132.407c8.829,8.606,18.548,16.619,24.91,27.181
	c16.325,27.104,5.835,57.613,6.168,87.043c0.395,34.965,7.523,69.869,21.094,102.105c6.276,14.908,17.483,31.445,33.628,30.465
	c-2.366-36.157,2.988-72.8,15.601-106.769c-1.807,4.866,17.072,34.794,19.609,41.065c6.638,16.411,12.112,33.291,16.421,50.46
	c8.623,34.363,12.558,69.9,11.731,105.316c-0.827,35.394-6.409,70.707-16.868,104.542c-10.518,34.026-31.707,64.83-44.746,98.39
	c-10.773,27.727-18.205,57.934-16.19,87.872c1.303,19.357,6.746,62.982,30.418,67.715c-12.025-31.899-18.214-65.988-18.169-100.079
	c2.844,31.905,10.417,63.384,22.396,93.092c-12.97-52.412-25.804-108.503-7.604-159.336c-9.21,50.763-5.423,103.829,10.902,152.77
	c11.216-5.181,7.609-21.729,3.233-33.282c-19.492-51.456-17.35-110.724,5.807-160.638c-17.702,55.377-17.839,116.226-0.385,171.681
	c9.62-7.721,6.048-22.79,2.628-34.641c-13.474-46.695-9.88-98.116,9.96-142.482c-17.153,50.485-18.27,106.286-3.15,157.417
	c8.952-3.205,7.567-16.104,4.981-25.254c-12.386-43.83-12.021-91.184,1.039-134.818c-6.446,47.756-12.481,98.541,7.663,142.318
	c-14.769-47.678-14.871-99.792-0.288-147.527c-8.043,44.75-7.196,91.08,2.477,135.507c-8.836-41.839-6.638-85.957,6.313-126.71
	c30.471,53.26,7.82,120.794-21.959,174.444c-5.408,9.742-11.185,21.255-6.744,31.474c7.154-13.512,14.309-27.025,21.463-40.537
	c-4.46,11.493-8.921,22.987-13.381,34.48c-1.204,3.103-2.36,6.794-0.529,9.575c1.34,2.036,4.817,1.86,6.205,0.373
	c-1.01,5.373-0.319,11.062,1.998,16.017c3.054-10.518,6.108-21.036,9.162-31.555c-3.872,14.445-4.512,29.752-1.803,44.461
	c6.857-30.325,10.304-61.42,10.255-92.51c1.945,30.8,0.438,61.817-4.485,92.283c5.641-3.244,9.47,5.576,9.326,12.456
	c1.858-27.985,3.716-55.97,5.573-83.955c0.692,33.661,1.383,67.322,2.075,100.983c5.475-46.52,2.734-93.658,2.337-140.413
	c6.761,48.781,8.809,98.214,6.104,147.387c8.363,1.119,11.385-10.659,11.037-19.09c-2.3-55.591-4.599-111.182-6.899-166.773
	c11.156,65.538,14.375,132.422,9.565,198.728c24.6-88.138,2.926-181.792-18.767-270.69c33.916,90.009,42.241,189.503,23.755,283.896
	c29.339-43.934,25.228-101.952,13.3-153.417c-11.928-51.466-30.661-102.76-26.888-155.455
	c-0.787,49.205,16.877,96.521,29.452,144.098c12.575,47.578,19.789,99.922-0.765,144.635c-3.862,8.401-8.762,17.722-5.509,26.376
	c27.03-27.959,33.889-70.401,29.015-108.984c-4.875-38.583-19.852-75.033-31.162-112.241s-18.992-77.203-8.983-114.782
	c-8.077,33.465-0.497,68.734,10.603,101.322c11.099,32.587,25.767,64.161,32.429,97.936c9.449,47.899,1.853,98.981-21.123,142.058
	c33.019-39.481,47.574-93.788,38.725-144.49c-7.417-42.495-29.983-80.891-40.404-122.751
	c-21.799-87.559,24.09-155.422,47.705-236.087c17-58.066,17.378-120.898,1.078-179.164c-1.018-3.637-2.109-7.405-1.508-11.134
	c1.974-12.248,18.543-14.471,30.883-13.189c12.34,1.283,28.587,0.671,32.323-11.159c9.957,9.011,21.802,15.927,34.544,20.168
	C996.138,382.929,995.696,380.188,995.183,377.463z"/>
</svg>
